<mxfile host="Electron" modified="2023-05-05T21:14:41.660Z" agent="Mozilla/5.0 (Windows NT 10.0; Win64; x64) AppleWebKit/537.36 (KHTML, like Gecko) draw.io/21.2.1 Chrome/112.0.5615.87 Electron/24.1.2 Safari/537.36" etag="aSmkvn3s6zsBWJ3g1NQW" version="21.2.1" type="device">
  <diagram name="Page-1" id="kONI2-lpgF3Xa1J8oByj">
    <mxGraphModel dx="521" dy="613" grid="1" gridSize="10" guides="1" tooltips="1" connect="1" arrows="1" fold="1" page="1" pageScale="1" pageWidth="850" pageHeight="1100" math="0" shadow="0">
      <root>
        <mxCell id="0" />
        <mxCell id="1" parent="0" />
        <mxCell id="vUK2pE5NFXpl0ztqClt7-2" value="" style="shape=umlLifeline;perimeter=lifelinePerimeter;whiteSpace=wrap;html=1;container=1;dropTarget=0;collapsible=0;recursiveResize=0;outlineConnect=0;portConstraint=eastwest;newEdgeStyle={&quot;edgeStyle&quot;:&quot;elbowEdgeStyle&quot;,&quot;elbow&quot;:&quot;vertical&quot;,&quot;curved&quot;:0,&quot;rounded&quot;:0};participant=umlActor;" parent="1" vertex="1">
          <mxGeometry x="100" y="78" width="20" height="1232" as="geometry" />
        </mxCell>
        <mxCell id="vUK2pE5NFXpl0ztqClt7-3" value="φαρμακοποιός" style="text;html=1;align=center;verticalAlign=middle;resizable=0;points=[];autosize=1;strokeColor=none;fillColor=none;" parent="1" vertex="1">
          <mxGeometry x="60" y="48" width="100" height="30" as="geometry" />
        </mxCell>
        <mxCell id="vUK2pE5NFXpl0ztqClt7-4" value="" style="shape=umlLifeline;perimeter=lifelinePerimeter;whiteSpace=wrap;html=1;container=1;dropTarget=0;collapsible=0;recursiveResize=0;outlineConnect=0;portConstraint=eastwest;newEdgeStyle={&quot;edgeStyle&quot;:&quot;elbowEdgeStyle&quot;,&quot;elbow&quot;:&quot;vertical&quot;,&quot;curved&quot;:0,&quot;rounded&quot;:0};participant=umlBoundary;" parent="1" vertex="1">
          <mxGeometry x="260" y="78" width="50" height="1242" as="geometry" />
        </mxCell>
        <mxCell id="vUK2pE5NFXpl0ztqClt7-7" value="" style="html=1;points=[];perimeter=orthogonalPerimeter;outlineConnect=0;targetShapes=umlLifeline;portConstraint=eastwest;newEdgeStyle={&quot;edgeStyle&quot;:&quot;elbowEdgeStyle&quot;,&quot;elbow&quot;:&quot;vertical&quot;,&quot;curved&quot;:0,&quot;rounded&quot;:0};" parent="vUK2pE5NFXpl0ztqClt7-4" vertex="1">
          <mxGeometry x="20" y="92" width="10" height="238" as="geometry" />
        </mxCell>
        <mxCell id="vUK2pE5NFXpl0ztqClt7-5" value="παραγγελίες που έχουν&lt;br&gt;&amp;nbsp;ολοκληρωθεί&amp;nbsp; ή που ακόμη&lt;br&gt;&amp;nbsp;δεν έχουν σταλεί" style="text;html=1;align=center;verticalAlign=middle;resizable=0;points=[];autosize=1;strokeColor=none;fillColor=none;" parent="1" vertex="1">
          <mxGeometry x="200" y="18" width="170" height="60" as="geometry" />
        </mxCell>
        <mxCell id="vUK2pE5NFXpl0ztqClt7-6" value="select_option_orders()" style="html=1;verticalAlign=bottom;startArrow=oval;startFill=1;endArrow=block;startSize=8;edgeStyle=elbowEdgeStyle;elbow=vertical;curved=0;rounded=0;" parent="1" source="vUK2pE5NFXpl0ztqClt7-2" target="vUK2pE5NFXpl0ztqClt7-4" edge="1">
          <mxGeometry width="60" relative="1" as="geometry">
            <mxPoint x="150" y="160" as="sourcePoint" />
            <mxPoint x="210" y="160" as="targetPoint" />
            <Array as="points">
              <mxPoint x="250" y="170" />
            </Array>
          </mxGeometry>
        </mxCell>
        <mxCell id="vUK2pE5NFXpl0ztqClt7-8" value="alternative" style="shape=umlFrame;whiteSpace=wrap;html=1;pointerEvents=0;fillColor=#f8cecc;strokeColor=#b85450;" parent="1" vertex="1">
          <mxGeometry x="10" y="200" width="640" height="160" as="geometry" />
        </mxCell>
        <mxCell id="vUK2pE5NFXpl0ztqClt7-9" value="finished orders" style="text;html=1;align=center;verticalAlign=middle;resizable=0;points=[];autosize=1;strokeColor=none;fillColor=none;" parent="1" vertex="1">
          <mxGeometry x="10" y="230" width="100" height="30" as="geometry" />
        </mxCell>
        <mxCell id="vUK2pE5NFXpl0ztqClt7-10" value="" style="shape=umlLifeline;perimeter=lifelinePerimeter;whiteSpace=wrap;html=1;container=1;dropTarget=0;collapsible=0;recursiveResize=0;outlineConnect=0;portConstraint=eastwest;newEdgeStyle={&quot;edgeStyle&quot;:&quot;elbowEdgeStyle&quot;,&quot;elbow&quot;:&quot;vertical&quot;,&quot;curved&quot;:0,&quot;rounded&quot;:0};participant=umlEntity;" parent="1" vertex="1">
          <mxGeometry x="425" y="78" width="40" height="1272" as="geometry" />
        </mxCell>
        <mxCell id="vUK2pE5NFXpl0ztqClt7-13" value="" style="html=1;points=[];perimeter=orthogonalPerimeter;outlineConnect=0;targetShapes=umlLifeline;portConstraint=eastwest;newEdgeStyle={&quot;edgeStyle&quot;:&quot;elbowEdgeStyle&quot;,&quot;elbow&quot;:&quot;vertical&quot;,&quot;curved&quot;:0,&quot;rounded&quot;:0};" parent="vUK2pE5NFXpl0ztqClt7-10" vertex="1">
          <mxGeometry x="15" y="172" width="10" height="988" as="geometry" />
        </mxCell>
        <mxCell id="vUK2pE5NFXpl0ztqClt7-11" value="Παραγγελίες&amp;nbsp;" style="text;html=1;align=center;verticalAlign=middle;resizable=0;points=[];autosize=1;strokeColor=none;fillColor=none;" parent="1" vertex="1">
          <mxGeometry x="400" y="48" width="90" height="30" as="geometry" />
        </mxCell>
        <mxCell id="vUK2pE5NFXpl0ztqClt7-12" value="search_finished_orders()" style="html=1;verticalAlign=bottom;startArrow=oval;startFill=1;endArrow=block;startSize=8;edgeStyle=elbowEdgeStyle;elbow=vertical;curved=0;rounded=0;" parent="1" source="vUK2pE5NFXpl0ztqClt7-7" target="vUK2pE5NFXpl0ztqClt7-10" edge="1">
          <mxGeometry width="60" relative="1" as="geometry">
            <mxPoint x="350" y="250" as="sourcePoint" />
            <mxPoint x="410" y="250" as="targetPoint" />
            <Array as="points">
              <mxPoint x="420" y="250" />
            </Array>
          </mxGeometry>
        </mxCell>
        <mxCell id="vUK2pE5NFXpl0ztqClt7-14" value="" style="shape=umlLifeline;perimeter=lifelinePerimeter;whiteSpace=wrap;html=1;container=1;dropTarget=0;collapsible=0;recursiveResize=0;outlineConnect=0;portConstraint=eastwest;newEdgeStyle={&quot;edgeStyle&quot;:&quot;elbowEdgeStyle&quot;,&quot;elbow&quot;:&quot;vertical&quot;,&quot;curved&quot;:0,&quot;rounded&quot;:0};participant=umlBoundary;" parent="1" vertex="1">
          <mxGeometry x="550" y="78" width="50" height="1262" as="geometry" />
        </mxCell>
        <mxCell id="vUK2pE5NFXpl0ztqClt7-17" value="" style="html=1;points=[];perimeter=orthogonalPerimeter;outlineConnect=0;targetShapes=umlLifeline;portConstraint=eastwest;newEdgeStyle={&quot;edgeStyle&quot;:&quot;elbowEdgeStyle&quot;,&quot;elbow&quot;:&quot;vertical&quot;,&quot;curved&quot;:0,&quot;rounded&quot;:0};" parent="vUK2pE5NFXpl0ztqClt7-14" vertex="1">
          <mxGeometry x="20" y="232" width="10" height="48" as="geometry" />
        </mxCell>
        <mxCell id="vUK2pE5NFXpl0ztqClt7-15" value="Παραγγελίες&amp;nbsp;&lt;br&gt;που έχουν ολοκληρωθή" style="text;html=1;align=center;verticalAlign=middle;resizable=0;points=[];autosize=1;strokeColor=none;fillColor=none;" parent="1" vertex="1">
          <mxGeometry x="510" y="18" width="150" height="40" as="geometry" />
        </mxCell>
        <mxCell id="vUK2pE5NFXpl0ztqClt7-16" value="display_finished_orders()" style="html=1;verticalAlign=bottom;startArrow=oval;startFill=1;endArrow=block;startSize=8;edgeStyle=elbowEdgeStyle;elbow=vertical;curved=0;rounded=0;" parent="1" source="vUK2pE5NFXpl0ztqClt7-13" target="vUK2pE5NFXpl0ztqClt7-14" edge="1">
          <mxGeometry width="60" relative="1" as="geometry">
            <mxPoint x="480" y="299.5" as="sourcePoint" />
            <mxPoint x="540" y="299.5" as="targetPoint" />
            <Array as="points">
              <mxPoint x="490" y="310" />
              <mxPoint x="550" y="310" />
            </Array>
          </mxGeometry>
        </mxCell>
        <mxCell id="vUK2pE5NFXpl0ztqClt7-18" value="" style="shape=umlLifeline;perimeter=lifelinePerimeter;whiteSpace=wrap;html=1;container=1;dropTarget=0;collapsible=0;recursiveResize=0;outlineConnect=0;portConstraint=eastwest;newEdgeStyle={&quot;edgeStyle&quot;:&quot;elbowEdgeStyle&quot;,&quot;elbow&quot;:&quot;vertical&quot;,&quot;curved&quot;:0,&quot;rounded&quot;:0};participant=umlBoundary;" parent="1" vertex="1">
          <mxGeometry x="720" y="80" width="50" height="1270" as="geometry" />
        </mxCell>
        <mxCell id="vUK2pE5NFXpl0ztqClt7-25" value="" style="html=1;points=[];perimeter=orthogonalPerimeter;outlineConnect=0;targetShapes=umlLifeline;portConstraint=eastwest;newEdgeStyle={&quot;edgeStyle&quot;:&quot;elbowEdgeStyle&quot;,&quot;elbow&quot;:&quot;vertical&quot;,&quot;curved&quot;:0,&quot;rounded&quot;:0};" parent="vUK2pE5NFXpl0ztqClt7-18" vertex="1">
          <mxGeometry x="20" y="400" width="10" height="70" as="geometry" />
        </mxCell>
        <mxCell id="vUK2pE5NFXpl0ztqClt7-19" value="search_pending_orders()" style="html=1;verticalAlign=bottom;startArrow=oval;startFill=1;endArrow=block;startSize=8;edgeStyle=elbowEdgeStyle;elbow=vertical;curved=0;rounded=0;" parent="1" source="vUK2pE5NFXpl0ztqClt7-7" target="vUK2pE5NFXpl0ztqClt7-10" edge="1">
          <mxGeometry x="0.0774" width="60" relative="1" as="geometry">
            <mxPoint x="460" y="400" as="sourcePoint" />
            <mxPoint x="430" y="400" as="targetPoint" />
            <Array as="points">
              <mxPoint x="400" y="400" />
              <mxPoint x="420" y="410" />
            </Array>
            <mxPoint as="offset" />
          </mxGeometry>
        </mxCell>
        <mxCell id="vUK2pE5NFXpl0ztqClt7-22" value="pending orders" style="text;html=1;align=center;verticalAlign=middle;resizable=0;points=[];autosize=1;strokeColor=none;fillColor=none;" parent="1" vertex="1">
          <mxGeometry x="10" y="358" width="100" height="30" as="geometry" />
        </mxCell>
        <mxCell id="vUK2pE5NFXpl0ztqClt7-23" value="παραγγελίες που ακόμα&lt;br&gt;&amp;nbsp;δεν έχουν σταλεί" style="text;html=1;align=center;verticalAlign=middle;resizable=0;points=[];autosize=1;strokeColor=none;fillColor=none;" parent="1" vertex="1">
          <mxGeometry x="670" y="33" width="150" height="40" as="geometry" />
        </mxCell>
        <mxCell id="vUK2pE5NFXpl0ztqClt7-24" value="display_pending_orders()" style="html=1;verticalAlign=bottom;startArrow=oval;startFill=1;endArrow=block;startSize=8;edgeStyle=elbowEdgeStyle;elbow=vertical;curved=0;rounded=0;" parent="1" target="vUK2pE5NFXpl0ztqClt7-18" edge="1">
          <mxGeometry width="60" relative="1" as="geometry">
            <mxPoint x="450" y="480" as="sourcePoint" />
            <mxPoint x="660" y="590" as="targetPoint" />
            <Array as="points">
              <mxPoint x="670" y="480" />
            </Array>
          </mxGeometry>
        </mxCell>
        <mxCell id="vUK2pE5NFXpl0ztqClt7-26" value="select_order()" style="html=1;verticalAlign=bottom;startArrow=oval;startFill=1;endArrow=block;startSize=8;edgeStyle=elbowEdgeStyle;elbow=vertical;curved=0;rounded=0;" parent="1" source="vUK2pE5NFXpl0ztqClt7-2" target="vUK2pE5NFXpl0ztqClt7-25" edge="1">
          <mxGeometry width="60" relative="1" as="geometry">
            <mxPoint x="600" y="590" as="sourcePoint" />
            <mxPoint x="660" y="590" as="targetPoint" />
          </mxGeometry>
        </mxCell>
        <mxCell id="vUK2pE5NFXpl0ztqClt7-27" value="" style="shape=umlLifeline;perimeter=lifelinePerimeter;whiteSpace=wrap;html=1;container=1;dropTarget=0;collapsible=0;recursiveResize=0;outlineConnect=0;portConstraint=eastwest;newEdgeStyle={&quot;edgeStyle&quot;:&quot;elbowEdgeStyle&quot;,&quot;elbow&quot;:&quot;vertical&quot;,&quot;curved&quot;:0,&quot;rounded&quot;:0};participant=umlEntity;" parent="1" vertex="1">
          <mxGeometry x="870" y="80" width="40" height="1250" as="geometry" />
        </mxCell>
        <mxCell id="vUK2pE5NFXpl0ztqClt7-31" value="" style="html=1;points=[];perimeter=orthogonalPerimeter;outlineConnect=0;targetShapes=umlLifeline;portConstraint=eastwest;newEdgeStyle={&quot;edgeStyle&quot;:&quot;elbowEdgeStyle&quot;,&quot;elbow&quot;:&quot;vertical&quot;,&quot;curved&quot;:0,&quot;rounded&quot;:0};" parent="vUK2pE5NFXpl0ztqClt7-27" vertex="1">
          <mxGeometry x="15" y="510" width="10" height="140" as="geometry" />
        </mxCell>
        <mxCell id="vUK2pE5NFXpl0ztqClt7-59" value="" style="html=1;points=[];perimeter=orthogonalPerimeter;outlineConnect=0;targetShapes=umlLifeline;portConstraint=eastwest;newEdgeStyle={&quot;edgeStyle&quot;:&quot;elbowEdgeStyle&quot;,&quot;elbow&quot;:&quot;vertical&quot;,&quot;curved&quot;:0,&quot;rounded&quot;:0};" parent="vUK2pE5NFXpl0ztqClt7-27" vertex="1">
          <mxGeometry x="15" y="930" width="10" height="220" as="geometry" />
        </mxCell>
        <mxCell id="vUK2pE5NFXpl0ztqClt7-29" value="&lt;font style=&quot;font-size: 11px;&quot;&gt;προϊόντα&lt;br style=&quot;border-color: var(--border-color); background-color: rgb(255, 255, 255);&quot;&gt;&lt;span style=&quot;background-color: rgb(255, 255, 255);&quot;&gt;φαρμακειου&lt;/span&gt;&lt;/font&gt;" style="text;html=1;align=center;verticalAlign=middle;resizable=0;points=[];autosize=1;strokeColor=none;fillColor=none;" parent="1" vertex="1">
          <mxGeometry x="845" y="18" width="80" height="40" as="geometry" />
        </mxCell>
        <mxCell id="vUK2pE5NFXpl0ztqClt7-32" value="frame" style="shape=umlFrame;whiteSpace=wrap;html=1;pointerEvents=0;fillColor=#f8cecc;strokeColor=#b85450;" parent="1" vertex="1">
          <mxGeometry x="600" y="620" width="570" height="80" as="geometry" />
        </mxCell>
        <mxCell id="vUK2pE5NFXpl0ztqClt7-33" value="stock=0" style="text;html=1;align=center;verticalAlign=middle;resizable=0;points=[];autosize=1;strokeColor=none;fillColor=none;" parent="1" vertex="1">
          <mxGeometry x="590" y="649" width="70" height="30" as="geometry" />
        </mxCell>
        <mxCell id="vUK2pE5NFXpl0ztqClt7-35" value="notify_customer_declined()" style="html=1;align=left;spacingLeft=2;endArrow=block;rounded=0;edgeStyle=orthogonalEdgeStyle;curved=0;rounded=0;" parent="1" edge="1">
          <mxGeometry relative="1" as="geometry">
            <mxPoint x="890" y="630" as="sourcePoint" />
            <Array as="points">
              <mxPoint x="920" y="630" />
              <mxPoint x="920" y="660" />
            </Array>
            <mxPoint x="895" y="660" as="targetPoint" />
          </mxGeometry>
        </mxCell>
        <mxCell id="vUK2pE5NFXpl0ztqClt7-37" value="stock&amp;gt;0" style="text;html=1;align=center;verticalAlign=middle;resizable=0;points=[];autosize=1;strokeColor=none;fillColor=none;" parent="1" vertex="1">
          <mxGeometry x="590" y="698" width="70" height="30" as="geometry" />
        </mxCell>
        <mxCell id="vUK2pE5NFXpl0ztqClt7-38" value="search_order()" style="html=1;verticalAlign=bottom;endArrow=open;dashed=1;endSize=8;edgeStyle=elbowEdgeStyle;elbow=vertical;curved=0;rounded=0;" parent="1" source="vUK2pE5NFXpl0ztqClt7-25" target="vUK2pE5NFXpl0ztqClt7-10" edge="1">
          <mxGeometry relative="1" as="geometry">
            <mxPoint x="570" y="540" as="sourcePoint" />
            <mxPoint x="490" y="540" as="targetPoint" />
            <Array as="points">
              <mxPoint x="540" y="550" />
              <mxPoint x="510" y="560" />
            </Array>
          </mxGeometry>
        </mxCell>
        <mxCell id="vUK2pE5NFXpl0ztqClt7-41" value="search_stock()" style="html=1;verticalAlign=bottom;startArrow=oval;startFill=1;endArrow=block;startSize=8;edgeStyle=elbowEdgeStyle;elbow=vertical;curved=0;rounded=0;" parent="1" target="vUK2pE5NFXpl0ztqClt7-31" edge="1">
          <mxGeometry width="60" relative="1" as="geometry">
            <mxPoint x="450" y="590" as="sourcePoint" />
            <mxPoint x="720" y="590" as="targetPoint" />
            <Array as="points">
              <mxPoint x="850" y="590" />
              <mxPoint x="490" y="600" />
            </Array>
          </mxGeometry>
        </mxCell>
        <mxCell id="vUK2pE5NFXpl0ztqClt7-42" value="" style="shape=umlLifeline;perimeter=lifelinePerimeter;whiteSpace=wrap;html=1;container=1;dropTarget=0;collapsible=0;recursiveResize=0;outlineConnect=0;portConstraint=eastwest;newEdgeStyle={&quot;edgeStyle&quot;:&quot;elbowEdgeStyle&quot;,&quot;elbow&quot;:&quot;vertical&quot;,&quot;curved&quot;:0,&quot;rounded&quot;:0};participant=umlBoundary;" parent="1" vertex="1">
          <mxGeometry x="1065" y="80" width="50" height="1270" as="geometry" />
        </mxCell>
        <mxCell id="vUK2pE5NFXpl0ztqClt7-45" value="" style="html=1;points=[];perimeter=orthogonalPerimeter;outlineConnect=0;targetShapes=umlLifeline;portConstraint=eastwest;newEdgeStyle={&quot;edgeStyle&quot;:&quot;elbowEdgeStyle&quot;,&quot;elbow&quot;:&quot;vertical&quot;,&quot;curved&quot;:0,&quot;rounded&quot;:0};" parent="vUK2pE5NFXpl0ztqClt7-42" vertex="1">
          <mxGeometry x="20" y="650" width="10" height="250" as="geometry" />
        </mxCell>
        <mxCell id="vUK2pE5NFXpl0ztqClt7-43" value="&lt;font style=&quot;font-size: 12px;&quot;&gt;H&lt;span style=&quot;border-color: var(--border-color); background-color: rgb(255, 255, 255); line-height: 17.12px; font-family: Arial, sans-serif;&quot;&gt;&amp;nbsp;παραγγελία είναι έτοιμη&lt;br style=&quot;border-color: var(--border-color);&quot;&gt;για αποδοχή&lt;/span&gt;&lt;/font&gt;" style="text;html=1;align=center;verticalAlign=middle;resizable=0;points=[];autosize=1;strokeColor=none;fillColor=none;" parent="1" vertex="1">
          <mxGeometry x="1010" y="23" width="160" height="50" as="geometry" />
        </mxCell>
        <mxCell id="vUK2pE5NFXpl0ztqClt7-44" value="display_ready_order()" style="html=1;verticalAlign=bottom;startArrow=oval;startFill=1;endArrow=block;startSize=8;edgeStyle=elbowEdgeStyle;elbow=vertical;curved=0;rounded=0;" parent="1" source="vUK2pE5NFXpl0ztqClt7-27" target="vUK2pE5NFXpl0ztqClt7-42" edge="1">
          <mxGeometry width="60" relative="1" as="geometry">
            <mxPoint x="970" y="740" as="sourcePoint" />
            <mxPoint x="1030" y="740" as="targetPoint" />
            <Array as="points">
              <mxPoint x="1030" y="730" />
            </Array>
          </mxGeometry>
        </mxCell>
        <mxCell id="vUK2pE5NFXpl0ztqClt7-46" value="select_accept_decline()" style="html=1;verticalAlign=bottom;startArrow=oval;startFill=1;endArrow=block;startSize=8;edgeStyle=elbowEdgeStyle;elbow=vertical;curved=0;rounded=0;" parent="1" source="vUK2pE5NFXpl0ztqClt7-2" target="vUK2pE5NFXpl0ztqClt7-45" edge="1">
          <mxGeometry width="60" relative="1" as="geometry">
            <mxPoint x="150" y="740" as="sourcePoint" />
            <mxPoint x="210" y="740" as="targetPoint" />
            <Array as="points">
              <mxPoint x="1020" y="790" />
            </Array>
          </mxGeometry>
        </mxCell>
        <mxCell id="vUK2pE5NFXpl0ztqClt7-47" value="frame" style="shape=umlFrame;whiteSpace=wrap;html=1;pointerEvents=0;fillColor=#f8cecc;strokeColor=#b85450;" parent="1" vertex="1">
          <mxGeometry x="600" y="810" width="670" height="90" as="geometry" />
        </mxCell>
        <mxCell id="vUK2pE5NFXpl0ztqClt7-48" value="decline" style="text;html=1;align=center;verticalAlign=middle;resizable=0;points=[];autosize=1;strokeColor=none;fillColor=none;" parent="1" vertex="1">
          <mxGeometry x="600" y="840" width="60" height="30" as="geometry" />
        </mxCell>
        <mxCell id="vUK2pE5NFXpl0ztqClt7-50" value="notify_customer_declined()" style="html=1;align=left;spacingLeft=2;endArrow=block;rounded=0;edgeStyle=orthogonalEdgeStyle;curved=0;rounded=0;" parent="1" edge="1">
          <mxGeometry relative="1" as="geometry">
            <mxPoint x="1085" y="825" as="sourcePoint" />
            <Array as="points">
              <mxPoint x="1115" y="855" />
            </Array>
            <mxPoint x="1090" y="855" as="targetPoint" />
          </mxGeometry>
        </mxCell>
        <mxCell id="vUK2pE5NFXpl0ztqClt7-53" value="accept" style="text;html=1;align=center;verticalAlign=middle;resizable=0;points=[];autosize=1;strokeColor=none;fillColor=none;" parent="1" vertex="1">
          <mxGeometry x="600" y="898" width="60" height="30" as="geometry" />
        </mxCell>
        <mxCell id="vUK2pE5NFXpl0ztqClt7-57" value="notify_customer_accept()" style="html=1;align=left;spacingLeft=2;endArrow=block;rounded=0;edgeStyle=orthogonalEdgeStyle;curved=0;rounded=0;" parent="1" edge="1">
          <mxGeometry x="0.0118" relative="1" as="geometry">
            <mxPoint x="1090" y="910" as="sourcePoint" />
            <Array as="points">
              <mxPoint x="1120" y="940" />
            </Array>
            <mxPoint x="1095" y="940" as="targetPoint" />
            <mxPoint as="offset" />
          </mxGeometry>
        </mxCell>
        <mxCell id="vUK2pE5NFXpl0ztqClt7-58" value="get_order_products()" style="html=1;verticalAlign=bottom;endArrow=open;dashed=1;endSize=8;edgeStyle=elbowEdgeStyle;elbow=vertical;curved=0;rounded=0;" parent="1" source="vUK2pE5NFXpl0ztqClt7-45" target="vUK2pE5NFXpl0ztqClt7-10" edge="1">
          <mxGeometry relative="1" as="geometry">
            <mxPoint x="1040" y="980" as="sourcePoint" />
            <mxPoint x="960" y="980" as="targetPoint" />
            <Array as="points">
              <mxPoint x="930" y="980" />
            </Array>
          </mxGeometry>
        </mxCell>
        <mxCell id="vUK2pE5NFXpl0ztqClt7-60" value="frame" style="shape=umlFrame;whiteSpace=wrap;html=1;pointerEvents=0;fillColor=#f8cecc;strokeColor=#b85450;" parent="1" vertex="1">
          <mxGeometry x="600" y="1080" width="670" height="120" as="geometry" />
        </mxCell>
        <mxCell id="vUK2pE5NFXpl0ztqClt7-61" value="reduce_stock()" style="html=1;verticalAlign=bottom;startArrow=oval;startFill=1;endArrow=block;startSize=8;edgeStyle=elbowEdgeStyle;elbow=vertical;curved=0;rounded=0;" parent="1" source="vUK2pE5NFXpl0ztqClt7-13" target="vUK2pE5NFXpl0ztqClt7-27" edge="1">
          <mxGeometry width="60" relative="1" as="geometry">
            <mxPoint x="670" y="1010" as="sourcePoint" />
            <mxPoint x="730" y="1010" as="targetPoint" />
            <Array as="points">
              <mxPoint x="800" y="1010" />
            </Array>
          </mxGeometry>
        </mxCell>
        <mxCell id="vUK2pE5NFXpl0ztqClt7-62" value="stock=0" style="text;html=1;align=center;verticalAlign=middle;resizable=0;points=[];autosize=1;strokeColor=none;fillColor=none;" parent="1" vertex="1">
          <mxGeometry x="595" y="1118" width="70" height="30" as="geometry" />
        </mxCell>
        <mxCell id="vUK2pE5NFXpl0ztqClt7-64" value="transfer_to_outofstock()" style="html=1;align=left;spacingLeft=2;endArrow=block;rounded=0;edgeStyle=orthogonalEdgeStyle;curved=0;rounded=0;" parent="1" edge="1">
          <mxGeometry relative="1" as="geometry">
            <mxPoint x="890" y="1100" as="sourcePoint" />
            <Array as="points">
              <mxPoint x="920" y="1130" />
            </Array>
            <mxPoint x="895" y="1130" as="targetPoint" />
          </mxGeometry>
        </mxCell>
        <mxCell id="vUK2pE5NFXpl0ztqClt7-65" value="tranfer_to_finished_orders()" style="html=1;verticalAlign=bottom;endArrow=open;dashed=1;endSize=8;edgeStyle=elbowEdgeStyle;elbow=vertical;curved=0;rounded=0;" parent="1" source="vUK2pE5NFXpl0ztqClt7-59" target="vUK2pE5NFXpl0ztqClt7-10" edge="1">
          <mxGeometry x="-0.0238" relative="1" as="geometry">
            <mxPoint x="690" y="1179.5" as="sourcePoint" />
            <mxPoint x="610" y="1179.5" as="targetPoint" />
            <Array as="points">
              <mxPoint x="850" y="1170" />
            </Array>
            <mxPoint as="offset" />
          </mxGeometry>
        </mxCell>
        <mxCell id="vUK2pE5NFXpl0ztqClt7-68" value="tranfer_to_finished_orders()" style="html=1;verticalAlign=bottom;endArrow=open;dashed=1;endSize=8;edgeStyle=elbowEdgeStyle;elbow=vertical;curved=0;rounded=0;" parent="1" source="vUK2pE5NFXpl0ztqClt7-59" target="vUK2pE5NFXpl0ztqClt7-13" edge="1">
          <mxGeometry relative="1" as="geometry">
            <mxPoint x="690" y="1220" as="sourcePoint" />
            <mxPoint x="245" y="1220" as="targetPoint" />
            <Array as="points">
              <mxPoint x="480" y="1230" />
            </Array>
          </mxGeometry>
        </mxCell>
        <mxCell id="s2-HetEQDLqAQhIi1REy-1" value=":main_order_screen" style="whiteSpace=wrap;html=1;" vertex="1" parent="1">
          <mxGeometry x="225" y="73" width="120" height="60" as="geometry" />
        </mxCell>
        <mxCell id="s2-HetEQDLqAQhIi1REy-2" value=":products" style="whiteSpace=wrap;html=1;" vertex="1" parent="1">
          <mxGeometry x="385" y="73" width="120" height="60" as="geometry" />
        </mxCell>
        <mxCell id="s2-HetEQDLqAQhIi1REy-3" value=":finished_order_screen" style="whiteSpace=wrap;html=1;" vertex="1" parent="1">
          <mxGeometry x="515" y="73" width="120" height="60" as="geometry" />
        </mxCell>
        <mxCell id="s2-HetEQDLqAQhIi1REy-4" value=":pending order_screen" style="whiteSpace=wrap;html=1;" vertex="1" parent="1">
          <mxGeometry x="685" y="70" width="120" height="60" as="geometry" />
        </mxCell>
        <mxCell id="s2-HetEQDLqAQhIi1REy-6" value=":inventory" style="whiteSpace=wrap;html=1;" vertex="1" parent="1">
          <mxGeometry x="830" y="70" width="120" height="60" as="geometry" />
        </mxCell>
        <mxCell id="s2-HetEQDLqAQhIi1REy-7" value=":accept_order_screen" style="whiteSpace=wrap;html=1;" vertex="1" parent="1">
          <mxGeometry x="1030" y="70" width="120" height="60" as="geometry" />
        </mxCell>
      </root>
    </mxGraphModel>
  </diagram>
</mxfile>
